<?xml version="1.0" standalone="no"?>
<!DOCTYPE svg PUBLIC "-//W3C//DTD SVG 20010904//EN"
 "http://www.w3.org/TR/2001/REC-SVG-20010904/DTD/svg10.dtd">
<svg version="1.0" xmlns="http://www.w3.org/2000/svg"
 width="1283.000000pt" height="1283.000000pt" viewBox="0 0 1283.000000 1283.000000"
 preserveAspectRatio="xMidYMid meet">
<metadata>
Created by potrace 1.14, written by Peter Selinger 2001-2017
</metadata>
<g transform="translate(0.000000,1283.000000) scale(0.100000,-0.100000)"
fill="#000000" stroke="none">
<path d="M4380 11150 c-176 -176 -320 -322 -320 -325 0 -3 380 -386 845 -851
465 -465 845 -847 845 -849 0 -3 -313 -318 -695 -700 l-695 -695 -236 237
c-130 131 -861 866 -1624 1633 -763 767 -1492 1500 -1618 1628 -127 127 -236
232 -242 232 -5 0 -152 -142 -325 -315 l-315 -315 131 -132 c129 -131 1348
-1363 1814 -1833 426 -430 1709 -1726 1834 -1853 l121 -123 0 -2769 0 -2770
470 0 470 0 0 2770 0 2771 748 751 c411 413 764 767 785 788 l38 38 785 -784
784 -785 0 -2779 0 -2780 460 0 460 0 0 2779 0 2780 1960 1960 c1078 1078
1960 1962 1960 1965 0 7 -638 646 -645 646 -3 0 -845 -839 -1870 -1865 l-1865
-1865 -691 691 -691 691 104 102 c57 57 439 441 851 854 l747 751 -126 123
c-70 68 -161 157 -204 198 -43 41 -134 130 -203 198 l-127 122 -845 -845
c-465 -465 -847 -845 -850 -845 -3 0 -385 380 -850 845 -465 465 -847 845
-850 845 -3 0 -149 -144 -325 -320z m4063 -264 l60 -58 -136 -137 c-75 -75
-428 -430 -785 -789 l-649 -654 -184 184 c-101 101 -190 192 -198 201 -13 17
49 82 768 801 l783 783 140 -136 c77 -75 168 -162 201 -195z m-6652 -828 c630
-634 1466 -1475 1857 -1868 l711 -715 758 758 c417 416 761 757 765 757 4 0
95 -88 203 -196 194 -193 196 -196 178 -216 -10 -11 -375 -379 -810 -817
l-793 -796 0 -2717 0 -2718 -290 0 -290 0 0 2718 0 2717 -411 415 c-486 490
-1770 1788 -2119 2140 -135 136 -459 464 -720 728 -261 264 -497 503 -525 531
l-50 51 190 190 c104 105 192 190 195 190 3 0 521 -519 1151 -1152z"/>
</g>
</svg>
